<svg width="24" height="24" viewBox="0 0 24 24" fill="none" xmlns="http://www.w3.org/2000/svg">
<path d="M3.94103 14.9992L7.08121 11.8586L11.4862 7.45319L15.8911 3.04776C17.2885 1.65015 19.5543 1.65009 20.9519 3.04761C22.3493 4.44501 22.3493 6.71063 20.952 8.10812L20.0606 8.99966C21.3252 10.2693 21.3236 12.3236 20.0559 13.5912L18.2725 15.3746C17.9796 15.6675 17.5048 15.6675 17.2119 15.3746C16.919 15.0817 16.919 14.6068 17.2119 14.3139L18.9953 12.5305C19.6771 11.8487 19.6787 10.7442 19 10.0604L9.00191 20.0596C8.59546 20.4661 8.08418 20.7518 7.52498 20.885L2.92373 21.9805C2.67037 22.0408 2.40385 21.9654 2.21968 21.7812C2.03552 21.5971 1.96009 21.3305 2.02041 21.0772L3.116 16.4757C3.2491 15.9167 3.5347 15.4055 3.94103 14.9992Z" fill="url(#paint0_linear_9701_1828)"/>
<path d="M5.09155 10.1981C5.26802 10.3231 5.47907 10.3898 5.69528 10.3891V10.3862C5.89915 10.3866 6.09864 10.3272 6.269 10.2152C6.43937 10.1032 6.57313 9.94369 6.65365 9.75642L7.09636 8.41027C7.19863 8.10529 7.37037 7.82833 7.59815 7.6012C7.82587 7.37407 8.10334 7.20306 8.40861 7.10166L9.6927 6.68424C9.89954 6.61159 10.0782 6.47552 10.2032 6.29541C10.3283 6.11537 10.3934 5.90045 10.3892 5.68126C10.385 5.46207 10.3118 5.24977 10.18 5.07457C10.0482 4.89938 9.86458 4.77021 9.65514 4.70544L8.38767 4.29379C8.08109 4.19177 7.80247 4.01965 7.57403 3.7911C7.3456 3.56256 7.17364 3.28389 7.07181 2.97724L6.65437 1.69391C6.58158 1.48951 6.44688 1.31287 6.26908 1.18852C6.09127 1.06417 5.87916 0.998286 5.66218 1.00003C5.44521 1.00178 5.23417 1.07107 5.05838 1.19827C4.8826 1.32547 4.7508 1.50426 4.6813 1.7098L4.26025 3.00396C4.15872 3.30169 3.99091 3.57249 3.76948 3.79592C3.54804 4.01935 3.27877 4.18958 2.98195 4.29379L1.69858 4.70616C1.54593 4.75955 1.40778 4.84771 1.29506 4.96368C1.18234 5.07964 1.09813 5.22023 1.0491 5.37434C1.00006 5.52845 0.987535 5.69184 1.01252 5.85163C1.0375 6.0114 1.0993 6.16318 1.19304 6.29498C1.32079 6.4748 1.50199 6.60971 1.71086 6.68063L2.97761 7.09155C3.28501 7.19439 3.56419 7.3675 3.79298 7.59708C3.85442 7.65804 3.91184 7.72296 3.96487 7.79135C4.10872 7.97753 4.21984 8.18682 4.29347 8.41027L4.71091 9.69215C4.78202 9.89631 4.9151 10.0732 5.09155 10.1981Z" fill="url(#paint1_linear_9701_1828)"/>
<g filter="url(#filter0_dd_9701_1828)">
<path d="M10.3322 13.4469C10.3872 13.6066 10.4908 13.7453 10.6283 13.8434C10.7688 13.9452 10.9379 14.0001 11.1115 14.0001C11.2823 14.0002 11.4488 13.9466 11.5874 13.847C11.7309 13.7459 11.8384 13.6017 11.8944 13.4353L12.1269 12.7211C12.1728 12.5829 12.2502 12.4573 12.353 12.3542C12.4557 12.2518 12.5804 12.1743 12.7177 12.1275L13.45 11.8899C13.6131 11.8323 13.7541 11.7248 13.8528 11.5827C13.9514 11.4405 14.0028 11.2709 13.9997 11.0979C13.9966 10.9249 13.9391 10.7572 13.8354 10.6188C13.7317 10.4803 13.587 10.378 13.4218 10.3263L12.7054 10.0931C12.5679 10.0472 12.4429 9.97014 12.3401 9.86787C12.2373 9.76568 12.1597 9.64103 12.1132 9.50375L11.8756 8.77145C11.8174 8.61062 11.7106 8.47181 11.5702 8.37425C11.4297 8.27668 11.2624 8.22518 11.0913 8.22685C10.9202 8.22851 10.7539 8.28325 10.6154 8.38356C10.4768 8.4838 10.3728 8.6247 10.3178 8.78661L10.0838 9.50302C10.039 9.63916 9.96368 9.76323 9.86351 9.86578C9.76334 9.96833 9.64108 10.0465 9.50602 10.0945L8.77948 10.3299C8.6167 10.3852 8.47558 10.4906 8.37649 10.6311C8.27661 10.7708 8.22288 10.9382 8.22266 11.1099C8.22208 11.2805 8.27517 11.4469 8.37432 11.5858C8.47587 11.729 8.62031 11.8362 8.7867 11.892L9.50241 12.1253C9.64071 12.1711 9.76638 12.2489 9.86929 12.3521C9.97192 12.4555 10.0493 12.5814 10.0953 12.7196L10.3322 13.4469Z" fill="url(#paint2_linear_9701_1828)"/>
</g>
<defs>
<filter id="filter0_dd_9701_1828" x="6.22266" y="7.22681" width="9.77734" height="9.77319" filterUnits="userSpaceOnUse" color-interpolation-filters="sRGB">
<feFlood flood-opacity="0" result="BackgroundImageFix"/>
<feColorMatrix in="SourceAlpha" type="matrix" values="0 0 0 0 0 0 0 0 0 0 0 0 0 0 0 0 0 0 127 0" result="hardAlpha"/>
<feOffset dy="1"/>
<feGaussianBlur stdDeviation="1"/>
<feColorMatrix type="matrix" values="0 0 0 0 0 0 0 0 0 0 0 0 0 0 0 0 0 0 0.32 0"/>
<feBlend mode="normal" in2="BackgroundImageFix" result="effect1_dropShadow_9701_1828"/>
<feColorMatrix in="SourceAlpha" type="matrix" values="0 0 0 0 0 0 0 0 0 0 0 0 0 0 0 0 0 0 127 0" result="hardAlpha"/>
<feOffset dy="0.2"/>
<feGaussianBlur stdDeviation="0.1"/>
<feColorMatrix type="matrix" values="0 0 0 0 0 0 0 0 0 0 0 0 0 0 0 0 0 0 0.24 0"/>
<feBlend mode="normal" in2="effect1_dropShadow_9701_1828" result="effect2_dropShadow_9701_1828"/>
<feBlend mode="normal" in="SourceGraphic" in2="effect2_dropShadow_9701_1828" result="shape"/>
</filter>
<linearGradient id="paint0_linear_9701_1828" x1="24" y1="-5" x2="-5.21242" y2="14.9266" gradientUnits="userSpaceOnUse">
<stop stop-color="#0FAFFF"/>
<stop offset="0.528846" stop-color="#5573F5"/>
<stop offset="1" stop-color="#B55BFB"/>
</linearGradient>
<linearGradient id="paint1_linear_9701_1828" x1="3" y1="2" x2="8" y2="14" gradientUnits="userSpaceOnUse">
<stop stop-color="#F8B5AD"/>
<stop offset="1" stop-color="#CC5EFE"/>
</linearGradient>
<linearGradient id="paint2_linear_9701_1828" x1="8.5" y1="7" x2="13.2353" y2="17.4412" gradientUnits="userSpaceOnUse">
<stop stop-color="#F8B5AD"/>
<stop offset="1" stop-color="#D477FF"/>
</linearGradient>
</defs>
</svg>
